<svg width="32" height="32" viewBox="0 0 32 32" fill="none" xmlns="http://www.w3.org/2000/svg">
  <defs>
    <linearGradient id="faviconGradient" x1="0%" y1="0%" x2="100%" y2="100%">
      <stop offset="0%" style="stop-color:#3B82F6;stop-opacity:1" />
      <stop offset="100%" style="stop-color:#8B5CF6;stop-opacity:1" />
    </linearGradient>
  </defs>
  
  <!-- Background -->
  <rect width="32" height="32" rx="8" fill="url(#faviconGradient)"/>
  
  <!-- Testimonial cards stack -->
  <rect x="4" y="6" width="16" height="10" rx="2" fill="white" opacity="0.8"/>
  <rect x="6" y="8" width="16" height="10" rx="2" fill="white" opacity="0.9"/>
  <rect x="8" y="10" width="16" height="10" rx="2" fill="white"/>
  
  <!-- Quote marks -->
  <path d="M12 16 L14 14 L14 16 L16 14" stroke="#3B82F6" stroke-width="1.5" fill="none" stroke-linecap="round"/>
  <path d="M18 16 L20 14 L20 16 L22 14" stroke="#3B82F6" stroke-width="1.5" fill="none" stroke-linecap="round"/>
  
  <!-- Stars -->
  <g transform="translate(10,20)">
    <polygon points="3,1 4,3 6,3 5,4 5.5,6 3,5 0.5,6 1,4 0,3 2,3" fill="#3B82F6"/>
    <polygon points="9,1 10,3 12,3 11,4 11.5,6 9,5 6.5,6 7,4 6,3 8,3" fill="#3B82F6"/>
  </g>
</svg>